<svg width="20" height="23" viewBox="0 0 20 23" fill="none" xmlns="http://www.w3.org/2000/svg">
<path d="M18.9611 9.32281H1.00836C0.472925 9.32281 0.0634766 8.91336 0.0634766 8.37793C0.0634766 7.84249 0.472925 7.43304 1.00836 7.43304H18.9611C19.4965 7.43304 19.906 7.84249 19.906 8.37793C19.906 8.91336 19.4965 9.32281 18.9611 9.32281Z" fill="#A65D57"/>
<path d="M14.4874 13.26C13.9519 13.26 13.5425 12.8506 13.5425 12.3151C13.5425 11.7797 13.9519 11.3702 14.4874 11.3702C15.0228 11.3702 15.4322 11.7797 15.4322 12.3151C15.4322 12.8506 14.9913 13.26 14.4874 13.26Z" fill="#A65D57"/>
<path d="M10.0147 13.2601C9.47927 13.2601 9.06982 12.8506 9.06982 12.3152C9.06982 11.7797 9.47927 11.3703 10.0147 11.3703C10.5501 11.3703 10.9596 11.7797 10.9596 12.3152C10.9596 12.8506 10.5186 13.2601 10.0147 13.2601Z" fill="#A65D57"/>
<path d="M5.54254 13.26C5.00711 13.26 4.59766 12.8506 4.59766 12.3151C4.59766 11.7797 5.00711 11.3702 5.54254 11.3702C6.07797 11.3702 6.48742 11.7797 6.48742 12.3151C6.48742 12.8506 6.04648 13.26 5.54254 13.26Z" fill="#A65D57"/>
<path d="M14.4874 17.1652C13.9519 17.1652 13.5425 16.7557 13.5425 16.2203C13.5425 15.6848 13.9519 15.2754 14.4874 15.2754C15.0228 15.2754 15.4322 15.6848 15.4322 16.2203C15.4322 16.7557 14.9913 17.1652 14.4874 17.1652Z" fill="#A65D57"/>
<path d="M10.0147 17.1652C9.47927 17.1652 9.06982 16.7557 9.06982 16.2203C9.06982 15.6848 9.47927 15.2754 10.0147 15.2754C10.5501 15.2754 10.9596 15.6848 10.9596 16.2203C10.9596 16.7557 10.5186 17.1652 10.0147 17.1652Z" fill="#A65D57"/>
<path d="M5.54254 17.1652C5.00711 17.1652 4.59766 16.7557 4.59766 16.2203C4.59766 15.6848 5.00711 15.2754 5.54254 15.2754C6.07797 15.2754 6.48742 15.6848 6.48742 16.2203C6.48742 16.7557 6.04648 17.1652 5.54254 17.1652Z" fill="#A65D57"/>
<path d="M14.0787 5.19685C13.5432 5.19685 13.1338 4.7874 13.1338 4.25197V0.944882C13.1338 0.409449 13.5432 0 14.0787 0C14.6141 0 15.0236 0.409449 15.0236 0.944882V4.25197C15.0236 4.75591 14.5826 5.19685 14.0787 5.19685Z" fill="#A65D57"/>
<path d="M5.92047 5.19685C5.38503 5.19685 4.97559 4.7874 4.97559 4.25197V0.944882C4.97559 0.409449 5.38503 0 5.92047 0C6.4559 0 6.86535 0.409449 6.86535 0.944882V4.25197C6.86535 4.75591 6.4559 5.19685 5.92047 5.19685Z" fill="#A65D57"/>
<path d="M14.2362 22.0159H5.73228C2.17323 22.0159 0 19.8427 0 16.3151V7.18125C0 3.71668 2.20472 1.57495 5.73228 1.57495H14.2677C16.0315 1.57495 17.5118 2.11037 18.5197 3.11825C19.4961 4.09463 20 5.51196 20 7.18125V16.3781C20 19.8427 17.7953 22.0159 14.2362 22.0159ZM5.73228 3.46472C3.9685 3.46472 1.88976 4.12613 1.88976 7.18125V16.2836C1.88976 18.0159 2.55118 20.0946 5.73228 20.0946H14.2362C16 20.0946 18.0787 19.4332 18.0787 16.3466V7.18125C18.0787 5.9844 17.7638 5.07101 17.1339 4.44109C16.5039 3.77967 15.4961 3.46472 14.2362 3.46472H5.73228Z" fill="#A65D57"/>
</svg>
