<svg width="16" height="13" viewBox="0 0 16 13" fill="none" xmlns="http://www.w3.org/2000/svg">
<path d="M14.1772 0.000731926C13.7171 0.0141414 13.2803 0.206083 12.9592 0.535922C10.1949 3.30621 8.06383 5.62907 5.53116 8.22237L2.95672 6.0447C2.78038 5.8861 2.574 5.76452 2.34981 5.68716C2.12561 5.6098 1.88817 5.57822 1.65155 5.59433C1.41493 5.61043 1.18395 5.67387 0.9723 5.78089C0.760652 5.88791 0.572644 6.03633 0.41942 6.21736C0.266196 6.39838 0.150873 6.60833 0.0802891 6.83475C0.00970477 7.06117 -0.0147052 7.29946 0.00850634 7.53549C0.0317179 7.77152 0.102078 8.00049 0.215417 8.20882C0.328756 8.41715 0.482767 8.60061 0.66832 8.74832L4.50692 11.9964C4.84654 12.2837 5.28182 12.4328 5.7263 12.414C6.17077 12.3952 6.59191 12.2099 6.90605 11.8949C10.0923 8.70181 12.3561 6.15631 15.4691 3.03657C15.7233 2.78709 15.8965 2.46678 15.966 2.11741C16.0354 1.76804 15.998 1.40585 15.8585 1.07809C15.7191 0.750318 15.484 0.472188 15.1841 0.280005C14.8842 0.0878227 14.5333 -0.00950396 14.1772 0.000731926Z" fill="#D4AA4F"/>
</svg>
