<svg width="68" height="68" viewBox="0 0 68 68" fill="none" xmlns="http://www.w3.org/2000/svg">
<g filter="url(#filter0_d_124_265)">
<circle cx="30" cy="30" r="20" fill="#7C9885"/>
</g>
<path d="M26.343 33.524C26.343 34.3307 26.519 34.9393 26.871 35.35C27.2377 35.7607 27.905 35.966 28.873 35.966C29.6943 35.966 30.413 35.8267 31.029 35.548C31.645 35.2547 32.1583 34.844 32.569 34.316C32.9797 33.7733 33.2877 33.128 33.493 32.38C33.6983 31.6173 33.801 30.774 33.801 29.85C33.801 28.75 33.6837 27.804 33.449 27.012C33.2143 26.2053 32.8623 25.494 32.393 24.878C32.1583 24.57 31.9017 24.306 31.623 24.086C31.359 23.8513 31.0583 23.6607 30.721 23.514C30.3837 23.3527 29.995 23.2353 29.555 23.162C29.115 23.074 28.609 23.03 28.037 23.03H26.343V33.524ZM20.535 35.966C21.283 35.966 21.789 35.812 22.053 35.504C22.3317 35.196 22.471 34.712 22.471 34.052V25.032C22.471 24.7093 22.4417 24.4233 22.383 24.174C22.339 23.9247 22.2437 23.7193 22.097 23.558C21.965 23.382 21.7743 23.25 21.525 23.162C21.2757 23.074 20.9457 23.03 20.535 23.03V21.996H30.369C31.6157 21.996 32.701 22.1867 33.625 22.568C34.549 22.9347 35.3263 23.4407 35.957 24.086C36.6023 24.746 37.0937 25.5307 37.431 26.44C37.783 27.3347 37.959 28.288 37.959 29.3C37.959 30.312 37.7683 31.3093 37.387 32.292C37.0057 33.26 36.419 34.1107 35.627 34.844C34.835 35.5773 33.9037 36.12 32.833 36.472C31.777 36.824 30.6037 37 29.313 37H20.535V35.966Z" fill="#F5F7F9"/>
<defs>
<filter id="filter0_d_124_265" x="0" y="0" width="68" height="68" filterUnits="userSpaceOnUse" color-interpolation-filters="sRGB">
<feFlood flood-opacity="0" result="BackgroundImageFix"/>
<feColorMatrix in="SourceAlpha" type="matrix" values="0 0 0 0 0 0 0 0 0 0 0 0 0 0 0 0 0 0 127 0" result="hardAlpha"/>
<feOffset dx="4" dy="4"/>
<feGaussianBlur stdDeviation="7"/>
<feColorMatrix type="matrix" values="0 0 0 0 0.571563 0 0 0 0 0.62 0 0 0 0 0.775 0 0 0 0.2 0"/>
<feBlend mode="normal" in2="BackgroundImageFix" result="effect1_dropShadow_124_265"/>
<feBlend mode="normal" in="SourceGraphic" in2="effect1_dropShadow_124_265" result="shape"/>
</filter>
</defs>
</svg>
