<svg width="350" height="29" viewBox="0 0 350 29" fill="none" xmlns="http://www.w3.org/2000/svg">
<g opacity="0.2">
<mask id="mask0_85_266" style="mask-type:alpha" maskUnits="userSpaceOnUse" x="0" y="0" width="350" height="29">
<rect width="350" height="29" fill="#D9D9D9"/>
</mask>
<g mask="url(#mask0_85_266)">
<path d="M678.789 18.0169L656.919 10.3433L635.05 18.0169L613.244 10.3433L591.374 18.0169L569.504 10.3433L547.634 18.0169L525.764 10.3433L503.895 18.0169L482.025 10.3433L460.155 18.0169L438.285 10.3433L416.415 18.0169L394.545 10.3432L372.676 18.0169L350.806 10.3432L328.936 18.0169L307.13 10.3432L285.26 18.0169L263.39 10.3432L241.521 18.0169L219.651 10.3432L197.781 18.0169L175.911 10.3432L154.041 18.0169L132.171 10.3432L110.302 18.0169L88.4318 10.3432L66.562 18.0169L44.6922 10.3432L22.8223 18.0169L0.952517 10.3432" stroke="#1B365D" stroke-miterlimit="10"/>
</g>
</g>
</svg>
