<svg width="68" height="68" viewBox="0 0 68 68" fill="none" xmlns="http://www.w3.org/2000/svg">
<g filter="url(#filter0_d_124_269)">
<circle cx="30" cy="30" r="20" fill="#D4AA4F"/>
</g>
<path d="M25.243 29.08C25.243 31.4267 25.639 33.2087 26.431 34.426C27.2377 35.6433 28.345 36.252 29.753 36.252C30.1343 36.252 30.5523 36.164 31.007 35.988C31.4763 35.7973 31.9163 35.4893 32.327 35.064C32.767 34.5947 33.1117 33.9713 33.361 33.194C33.6103 32.402 33.735 31.368 33.735 30.092C33.735 28.9627 33.6323 27.9507 33.427 27.056C33.2363 26.1467 32.9503 25.384 32.569 24.768C32.2023 24.1373 31.7477 23.6607 31.205 23.338C30.6623 23.0007 30.039 22.832 29.335 22.832C28.0737 22.832 27.0763 23.3673 26.343 24.438C25.6097 25.494 25.243 27.0413 25.243 29.08ZM29.555 21.688C30.1123 21.688 30.7063 21.7393 31.337 21.842C31.9823 21.9447 32.6203 22.1207 33.251 22.37C33.8817 22.6047 34.483 22.92 35.055 23.316C35.627 23.6973 36.133 24.174 36.573 24.746C37.013 25.318 37.3577 25.9853 37.607 26.748C37.871 27.5107 38.003 28.3833 38.003 29.366C38.003 30.3927 37.8197 31.3827 37.453 32.336C37.0863 33.2893 36.5363 34.1327 35.803 34.866C35.0843 35.5993 34.1823 36.186 33.097 36.626C32.0263 37.066 30.7797 37.286 29.357 37.286C27.9637 37.286 26.7463 37.0733 25.705 36.648C24.6637 36.2227 23.791 35.658 23.087 34.954C22.383 34.25 21.855 33.4507 21.503 32.556C21.151 31.6467 20.975 30.7153 20.975 29.762C20.975 28.5153 21.2097 27.3933 21.679 26.396C22.163 25.3987 22.801 24.5553 23.593 23.866C24.385 23.162 25.2943 22.6267 26.321 22.26C27.3623 21.8787 28.4403 21.688 29.555 21.688Z" fill="#F5F7F9"/>
<defs>
<filter id="filter0_d_124_269" x="0" y="0" width="68" height="68" filterUnits="userSpaceOnUse" color-interpolation-filters="sRGB">
<feFlood flood-opacity="0" result="BackgroundImageFix"/>
<feColorMatrix in="SourceAlpha" type="matrix" values="0 0 0 0 0 0 0 0 0 0 0 0 0 0 0 0 0 0 127 0" result="hardAlpha"/>
<feOffset dx="4" dy="4"/>
<feGaussianBlur stdDeviation="7"/>
<feColorMatrix type="matrix" values="0 0 0 0 0.571563 0 0 0 0 0.62 0 0 0 0 0.775 0 0 0 0.2 0"/>
<feBlend mode="normal" in2="BackgroundImageFix" result="effect1_dropShadow_124_269"/>
<feBlend mode="normal" in="SourceGraphic" in2="effect1_dropShadow_124_269" result="shape"/>
</filter>
</defs>
</svg>
