<svg width="67" height="109" viewBox="0 0 67 109" fill="none" xmlns="http://www.w3.org/2000/svg">
<path d="M19.4283 6.03896C-3.45534 35.675 11.7404 76.2503 33.8371 67.7099C46.2401 62.9161 40.9644 41.6513 23.762 48.3351C-2.99448 58.7312 23.8487 102.737 61.283 97.8891" stroke="#D4AA4F" stroke-width="2" stroke-linecap="round"/>
<path d="M58.3244 94.6353C60.1777 95.4077 62.0125 96.1881 63.7874 97.15C63.853 97.1855 65.8933 98.1378 65.9176 98.6366C65.9219 98.7232 65.8115 98.7726 65.7404 98.8165C65.4023 99.0257 64.8218 99.1623 64.486 99.2511C62.7579 99.7081 61.0049 100.079 59.2644 100.486C58.3988 100.688 57.5357 100.911 56.6682 101.105C56.3569 101.174 56.1724 101.237 56.2483 100.839C56.385 100.121 56.6904 99.4386 56.9531 98.7678C57.3721 97.698 57.6546 96.6405 57.9628 95.5328" stroke="#D4AA4F" stroke-width="2" stroke-linecap="round"/>
</svg>
