<svg width="67" height="109" viewBox="0 0 67 109" fill="none" xmlns="http://www.w3.org/2000/svg">
<path d="M47.5717 6.03896C70.4553 35.675 55.2596 76.2503 33.1629 67.7099C20.7599 62.9161 26.0356 41.6513 43.238 48.3351C69.9945 58.7312 43.1513 102.737 5.717 97.8891" stroke="#D4AA4F" stroke-width="2" stroke-linecap="round"/>
<path d="M8.67562 94.6353C6.82225 95.4077 4.9875 96.1881 3.21258 97.15C3.14699 97.1855 1.10668 98.1378 1.08236 98.6366C1.07814 98.7232 1.18854 98.7726 1.25958 98.8165C1.5977 99.0257 2.1782 99.1623 2.51396 99.2511C4.24214 99.7081 5.99515 100.079 7.73562 100.486C8.60124 100.688 9.46432 100.911 10.3318 101.105C10.6431 101.174 10.8276 101.237 10.7517 100.839C10.615 100.121 10.3096 99.4386 10.0469 98.7678C9.62789 97.698 9.34537 96.6405 9.03715 95.5328" stroke="#D4AA4F" stroke-width="2" stroke-linecap="round"/>
</svg>
