<svg width="68" height="68" viewBox="0 0 68 68" fill="none" xmlns="http://www.w3.org/2000/svg">
<g filter="url(#filter0_d_124_273)">
<circle cx="30" cy="30" r="20" fill="#7C9885"/>
</g>
<path d="M29.4093 21.688C30.1719 21.688 31.0373 21.798 32.0053 22.018C33.0173 22.238 33.9266 22.546 34.7333 22.942V26.242H33.1713C33.0833 25.67 32.9073 25.164 32.6433 24.724C32.3793 24.284 32.0786 23.9173 31.7413 23.624C31.0519 23.0227 30.2599 22.722 29.3653 22.722C28.6759 22.722 28.1113 22.898 27.6713 23.25C27.2459 23.5873 27.0333 24.0347 27.0333 24.592C27.0333 24.944 27.1286 25.2593 27.3193 25.538C27.5099 25.802 27.7813 26.0587 28.1333 26.308C28.4853 26.5427 28.9179 26.7847 29.4313 27.034C29.9593 27.2687 30.5533 27.5253 31.2133 27.804C32.7093 28.4493 33.8313 29.1607 34.5793 29.938C35.3419 30.7153 35.7233 31.698 35.7233 32.886C35.7233 34.2647 35.1733 35.3427 34.0733 36.12C32.9879 36.8973 31.4479 37.286 29.4533 37.286C28.9986 37.286 28.5073 37.2567 27.9793 37.198C27.4659 37.154 26.9526 37.0807 26.4393 36.978C25.9259 36.8753 25.4199 36.758 24.9213 36.626C24.4226 36.494 23.9679 36.34 23.5573 36.164V32.446H25.3173C25.4053 33.0473 25.5739 33.5827 25.8233 34.052C26.0726 34.5213 26.3806 34.9173 26.7473 35.24C27.1139 35.5627 27.5173 35.812 27.9573 35.988C28.4119 36.164 28.8959 36.252 29.4093 36.252C30.1573 36.252 30.7659 36.0687 31.2353 35.702C31.7046 35.3353 31.9393 34.8587 31.9393 34.272C31.9393 33.876 31.8659 33.5313 31.7193 33.238C31.5726 32.93 31.3526 32.6513 31.0593 32.402C30.7659 32.138 30.3846 31.8887 29.9153 31.654C29.4606 31.4193 28.9179 31.17 28.2873 30.906C26.7179 30.246 25.5079 29.542 24.6573 28.794C23.8213 28.0313 23.4033 27.1073 23.4033 26.022C23.4033 25.4207 23.5426 24.856 23.8213 24.328C24.1146 23.7853 24.5473 23.3087 25.1193 22.898C25.7059 22.4873 26.3586 22.1867 27.0773 21.996C27.8106 21.7907 28.5879 21.688 29.4093 21.688Z" fill="#F5F7F9"/>
<defs>
<filter id="filter0_d_124_273" x="0" y="0" width="68" height="68" filterUnits="userSpaceOnUse" color-interpolation-filters="sRGB">
<feFlood flood-opacity="0" result="BackgroundImageFix"/>
<feColorMatrix in="SourceAlpha" type="matrix" values="0 0 0 0 0 0 0 0 0 0 0 0 0 0 0 0 0 0 127 0" result="hardAlpha"/>
<feOffset dx="4" dy="4"/>
<feGaussianBlur stdDeviation="7"/>
<feColorMatrix type="matrix" values="0 0 0 0 0.571563 0 0 0 0 0.62 0 0 0 0 0.775 0 0 0 0.2 0"/>
<feBlend mode="normal" in2="BackgroundImageFix" result="effect1_dropShadow_124_273"/>
<feBlend mode="normal" in="SourceGraphic" in2="effect1_dropShadow_124_273" result="shape"/>
</filter>
</defs>
</svg>
