<svg width="29" height="132" viewBox="0 0 29 132" fill="none" xmlns="http://www.w3.org/2000/svg">
<g opacity="0.1">
<mask id="mask0_90_797" style="mask-type:alpha" maskUnits="userSpaceOnUse" x="0" y="0" width="29" height="132">
<rect x="29" width="132" height="29" transform="rotate(90 29 0)" fill="#D9D9D9"/>
</mask>
<g mask="url(#mask0_90_797)">
<path d="M10.9831 590.79L18.6567 568.92L10.9831 547.05L18.6567 525.244L10.9831 503.374L18.6567 481.504L10.9831 459.635L18.6568 437.765L10.9831 415.895L18.6568 394.025L10.9831 372.155L18.6568 350.285L10.9831 328.416L18.6568 306.546L10.9831 284.676L18.6568 262.806L10.9831 240.936L18.6568 219.13L10.9831 197.261L18.6568 175.391L10.9832 153.521L18.6568 131.651L10.9832 109.781L18.6568 87.9114L10.9832 66.0416L18.6568 44.1717L10.9832 22.3019L18.6568 0.432067L10.9832 -21.4377L18.6568 -43.3076L10.9832 -65.1774L18.6568 -87.0472" stroke="#1B365D" stroke-miterlimit="10"/>
</g>
</g>
</svg>
